<?xml version="1.0" standalone="no"?>
<!DOCTYPE svg PUBLIC "-//W3C//DTD SVG 1.1//EN" "http://www.w3.org/Graphics/SVG/1.1/DTD/svg11.dtd">
<!--App : DrStudio-->
<!--Author : Charles A.D. BONDJE DOUE-->
<!--version : 1.0-->
<!--description : File generate by SVGDrawing2DEncoderVisitor-->
<svg width="100" height="100" id="LayerDocument_18103237" viewBox="0 0 100 100" version="1.1" xmlns="http://www.w3.org/2000/svg" xmlns:xlink="http://www.w3.org/1999/xlink">
	<path id="Path_64112631" d="M 42.99619,57.43514 C 40.86077,58.30872 38.62006,58.89861 36.3313,59.18974 L 36.78546,62.76022 C 34.18468,63.09103 31.55175,63.0795 28.95397,62.72591 L 29.43939,59.15955 C 27.15327,58.84838 24.91781,58.23888 22.79012,57.34663 L 21.3982,60.66583 C 18.98045,59.65194 16.70603,58.32549 14.63308,56.72038 L 16.83665,53.87453 C 15.01239,52.46199 13.38117,50.81642 11.98467,48.97986 L 9.119629,51.15841 C 7.532743,49.07148 6.226267,46.78553 5.233591,44.35899 L 8.564859,42.99619 C 7.691279,40.86077 7.101389,38.62006 6.810262,36.3313 L 3.239788,36.78547 C 2.908971,34.18468 2.920504,31.55175 3.274092,28.95396 L 6.84045,29.4394 C 7.151616,27.15328 7.761114,24.91781 8.653367,22.79013 L 5.334165,21.39821 C 6.348062,18.98045 7.674514,16.70604 9.279624,14.63308 L 12.12547,16.83665 C 13.53801,15.0124 15.18358,13.38118 17.02014,11.98467 L 14.84158,9.119633 C 16.92852,7.532747 19.21446,6.226273 21.641,5.233595 L 23.0038,8.564863 C 25.13922,7.69128 27.37994,7.101389 29.6687,6.810261 L 29.21453,3.239788 C 31.81531,2.908971 34.44823,2.920504 37.04602,3.27409 L 36.5606,6.84045 C 38.84672,7.151615 41.08218,7.761112 43.20987,8.653366 L 44.60179,5.334163 C 47.01954,6.348059 49.29396,7.674509 51.36691,9.279617 L 49.16335,12.12546 C 50.9876,13.538 52.61882,15.18357 54.01532,17.02013 L 56.88036,14.84157 C 58.46725,16.92851 59.77372,19.21446 60.7664,21.641 L 57.43513,23.00379 C 58.30872,25.13921 58.89861,27.37993 59.18974,29.66868 L 62.76021,29.21452 C 63.09103,31.8153 63.0795,34.44823 62.72591,37.04601 L 59.15955,36.56059 C 58.84838,38.84671 58.23889,41.08218 57.34664,43.20986 L 60.66584,44.60178 C 59.65194,47.01954 58.32549,49.29396 56.72038,51.36692 L 53.87453,49.16335 C 52.462,50.9876 50.81643,52.61882 48.97987,54.01532 L 51.15842,56.88036 C 49.07149,58.46725 46.78554,59.77373 44.359,60.7664 zM 52.20937,33 C 52.20937,22.39095 43.60905,13.79063 33,13.79063 22.39095,13.79063 13.79063,22.39095 13.79063,33 13.79063,43.60905 22.39095,52.20937 33,52.20937 43.60905,52.20937 52.20937,43.60905 52.20937,33 " ></path>
	<path id="Path_64112631" d="M 49.62038,90.36002 C 48.62364,90.76778 47.57775,91.04312 46.50943,91.17901 L 46.72142,92.8456 C 45.50746,93 44.27849,92.99462 43.06593,92.82957 L 43.29251,91.16492 C 42.22542,91.01968 41.18198,90.73518 40.18885,90.3187 L 39.53914,91.868 C 38.41061,91.39475 37.34899,90.7756 36.3814,90.02639 L 37.40996,88.69804 C 36.55845,88.03871 35.79705,87.27061 35.14521,86.41337 L 33.8079,87.43024 C 33.0672,86.45613 32.45738,85.38913 31.99403,84.25649 L 33.54896,83.62038 C 33.1412,82.62364 32.86586,81.57775 32.72997,80.50943 L 31.06339,80.72142 C 30.90897,79.50746 30.91435,78.2785 31.0794,77.06593 L 32.74406,77.29252 C 32.8893,76.22543 33.17379,75.18198 33.59027,74.18885 L 32.04097,73.53915 C 32.51423,72.41061 33.13337,71.349 33.88258,70.38141 L 35.21093,71.40996 C 35.87026,70.55846 36.63836,69.79706 37.49561,69.14522 L 36.47873,67.80791 C 37.45284,67.0672 38.51984,66.45738 39.65247,65.99403 L 40.28859,67.54896 C 41.28533,67.1412 42.33123,66.86586 43.39954,66.72997 L 43.18755,65.06339 C 44.40151,64.90897 45.63047,64.91435 46.84304,65.0794 L 46.61646,66.74406 C 47.68355,66.88931 48.72699,67.1738 49.72012,67.59027 L 50.36983,66.04097 C 51.49835,66.51423 52.55998,67.13337 53.52757,67.88258 L 52.49901,69.21093 C 53.35051,69.87026 54.11192,70.63836 54.76376,71.49561 L 56.10106,70.47872 C 56.84177,71.45284 57.45159,72.51984 57.91494,73.65247 L 56.36001,74.28858 C 56.76778,75.28532 57.04312,76.33122 57.17901,77.39954 L 58.84558,77.18755 C 59,78.40151 58.99462,79.63048 58.82957,80.84303 L 57.16492,80.61646 C 57.01967,81.68354 56.73518,82.72699 56.31871,83.72012 L 57.868,84.36982 C 57.39475,85.49835 56.7756,86.55998 56.02639,87.52757 L 54.69804,86.49902 C 54.03872,87.35052 53.27062,88.11192 52.41337,88.76376 L 53.43025,90.10107 C 52.45614,90.84177 51.38913,91.4516 50.2565,91.91495 zM 53.9208,78.95449 C 53.9208,74.00253 49.90645,69.98817 44.95449,69.98817 40.00253,69.98817 35.98817,74.00253 35.98817,78.95449 35.98817,83.90645 40.00253,87.9208 44.95449,87.9208 49.90645,87.9208 53.9208,83.90645 53.9208,78.95449 " ></path>
	<path id="Path_64112631" d="M 85.11655,68.0612 C 83.8803,68.59233 82.5831,68.951 81.25807,69.128 L 81.521,71.29887 C 80.01534,71.5 78.49105,71.493 76.98713,71.278 L 77.26816,69.10964 C 75.94466,68.92046 74.65048,68.54988 73.41872,68.00738 L 72.61288,70.02547 C 71.21318,69.40903 69.89647,68.60252 68.69637,67.62661 L 69.97208,65.89632 C 68.91596,65.03749 67.97161,64.03696 67.16314,62.92033 L 65.50449,64.2449 C 64.5858,62.97604 63.82945,61.58617 63.25476,60.11082 L 65.18333,59.28222 C 64.67759,57.98388 64.33608,56.62152 64.16754,55.22994 L 62.10049,55.50607 C 61.90897,53.92479 61.91564,52.32396 62.12035,50.74448 L 64.18501,51.03963 C 64.36516,49.64965 64.718,48.29046 65.23457,46.99683 L 63.31298,46.15053 C 63.89996,44.68051 64.66787,43.29767 65.59711,42.0373 L 67.24465,43.37708 C 68.06241,42.26792 69.01508,41.27613 70.07832,40.42706 L 68.81709,38.68509 C 70.02527,37.72025 71.34866,36.92591 72.75345,36.32236 L 73.54242,38.34779 C 74.77867,37.81664 76.07589,37.45799 77.4009,37.28099 L 77.13797,35.11012 C 78.64363,34.90897 80.1679,34.91598 81.67184,35.13097 L 81.39082,37.29933 C 82.71432,37.48854 84.00848,37.85911 85.24026,38.4016 L 86.04609,36.3835 C 87.44578,36.99996 88.7625,37.80645 89.9626,38.78236 L 88.68688,40.51265 C 89.743,41.37149 90.68736,42.372 91.49583,43.48865 L 93.15447,42.16406 C 94.07317,43.43294 94.82952,44.82279 95.40421,46.29815 L 93.47565,47.12674 C 93.9814,48.42507 94.3229,49.78746 94.49144,51.17904 L 96.55848,50.9029 C 96.75,52.48419 96.74333,54.08503 96.53862,55.66449 L 94.47397,55.36936 C 94.29382,56.75932 93.94096,58.1185 93.42442,59.41215 L 95.34599,60.25843 C 94.75903,61.72845 93.9911,63.11131 93.06186,64.37168 L 91.41432,63.03191 C 90.59657,64.14105 89.64391,65.13285 88.58067,65.98193 L 89.84189,67.72388 C 88.63371,68.68871 87.31031,69.48307 85.90553,70.08662 zM 90.45032,53.20449 C 90.45032,46.75413 85.47136,41.52507 79.32949,41.52507 73.18762,41.52507 68.20866,46.75413 68.20866,53.20449 68.20866,59.65485 73.18762,64.8839 79.32949,64.8839 85.47136,64.8839 90.45032,59.65485 90.45032,53.20449 " ></path>
</svg>