<?xml version="1.0" standalone="no"?>
<!DOCTYPE svg PUBLIC "-//W3C//DTD SVG 1.1//EN" "http://www.w3.org/Graphics/SVG/1.1/DTD/svg11.dtd">
<!--App : DrStudio-->
<!--Author : Charles A.D. BONDJE DOUE-->
<!--version : 1.0-->
<!--description : File generate by SVGDrawing2DEncoderVisitor-->
<svg width="100" height="100" id="LayerDocument_13220490" viewBox="0 0 100 100" version="1.1" xmlns="http://www.w3.org/2000/svg" xmlns:xlink="http://www.w3.org/1999/xlink">
	<path id="Path_44679381" d="M 5.741772,28.4402 L 9.664428,25.64908 13.02173,23.40668 15.42071,21.71 17.70807,20.10877 19.97114,18.52462 22.51166,16.73125 25.8458,14.50527 29.57944,11.84435 C 31.87981,10.20755 34.90161,9.992274 37.41078,11.28643 39.91996,12.58058 41.49644,15.16753 41.49644,17.99078 L 41.49644,23.87476 41.49644,29.00439 41.49644,33.60597 41.49644,37.67949 41.49644,44.84588 41.49644,51.18248 41.49644,57.51908 41.49644,64.68547 41.49644,68.759 41.49644,73.36057 41.49644,78.4902 41.49644,84.37418 33.62521,76.83774 42.30031,76.46056 48.89255,75.34309 54.30161,73.61506 53.29141,74.00536 58.57191,71.51599 57.40401,72.20088 61.62841,69.18346 60.55635,70.11324 63.72465,66.79408 62.64028,68.2451 64.67704,64.69962 64.01791,66.20719 65.14945,62.58628 64.80607,64.83634 64.80607,61.13999 65.04052,63.00615 64.13529,59.46067 64.94994,61.43214 62.98861,58.11297 64.08014,59.53973 61.21361,56.59774 62.51846,57.66669 58.67125,55.17731 60.02456,55.87048 55.19668,53.98459 56.46201,54.35515 50.80433,53.22362 46.32432,53.89817 46.15366,37.91823 53.76315,38.42947 59.42083,39.56101 C 59.85199,39.64725 60.27658,39.77156 60.68616,39.93158 L 65.51405,41.81747 C 65.98685,42.00214 66.44118,42.23487 66.86736,42.5106 L 70.71458,44.99998 C 71.18799,45.30631 71.62593,45.66508 72.01944,46.06897 L 74.88599,49.01096 C 75.30529,49.44128 75.67188,49.92044 75.97755,50.43772 L 77.93887,53.75689 C 78.30236,54.37205 78.57672,55.03601 78.75349,55.72836 L 79.65872,59.27383 C 79.81438,59.88357 79.8932,60.51071 79.8932,61.13999 L 79.8932,64.83634 C 79.8932,65.59936 79.7774,66.35812 79.54982,67.0864 L 78.41828,70.70731 C 78.25426,71.2322 78.03307,71.73804 77.75916,72.21488 L 75.7224,75.76036 C 75.42052,76.28584 75.05645,76.77301 74.63802,77.21138 L 71.46972,80.53056 C 71.14254,80.8733 70.7832,81.18494 70.39764,81.46034 L 66.17323,84.47777 C 65.80544,84.74049 65.4142,84.96994 65.00536,85.16267 L 59.72487,87.65204 C 59.39787,87.8062 59.06037,87.93658 58.71467,88.04234 L 51.29964,90.23695 42.95564,91.53345 34.28054,91.91063 C 32.22494,92.00001 30.22206,91.24583 28.73589,89.8229 27.24974,88.39994 26.4093,86.4317 26.4093,84.37418 L 26.4093,78.4902 26.4093,73.36057 26.4093,68.759 26.4093,64.68547 26.4093,57.51908 26.4093,51.18248 26.4093,44.84588 26.4093,37.67949 26.4093,33.60597 26.4093,29.00439 26.4093,23.87476 26.4093,17.99078 38.3263,24.13721 34.21463,27.05853 31.21217,29.05695 28.62304,30.88449 26.35997,32.46864 24.12122,34.03571 21.39057,35.95993 18.41128,37.94195 14.48862,40.73307 zM 95.61256,84.95573 C 95.61256,88.84616 92.45873,92.00001 88.56831,92.00001 84.67788,92.00001 81.52406,88.84616 81.52406,84.95573 81.52406,81.0653 84.67788,77.91149 88.56831,77.91149 92.45873,77.91149 95.61256,81.0653 95.61256,84.95573 z" ></path>
</svg>