<?xml version="1.0" standalone="no"?>
<!DOCTYPE svg PUBLIC "-//W3C//DTD SVG 1.1//EN" "http://www.w3.org/Graphics/SVG/1.1/DTD/svg11.dtd">
<!--App : DrStudio-->
<!--Author : Charles A.D. BONDJE DOUE-->
<!--version : 1.0-->
<!--description : File generate by SVGDrawing2DEncoderVisitor-->
<svg width="100" height="100" id="LayerDocument_55677733" viewBox="0 0 100 100" version="1.1" xmlns="http://www.w3.org/2000/svg" xmlns:xlink="http://www.w3.org/1999/xlink">
	<path id="Path_56926088" d="M 56.25763,33.32307 L 47.33537,33.32307 47.33537,31.79572 C 47.33537,30.16958 47.2323,29.10575 47.02618,28.60423 46.82005,28.10271 46.37836,27.85195 45.70109,27.85195 45.15633,27.85195 44.74776,28.06852 44.47538,28.50165 44.203,28.93477 44.06682,29.58447 44.06682,30.45073 44.06682,31.8945 44.34656,32.90514 44.90604,33.48264 45.4508,34.06015 47.05562,35.18477 49.72053,36.85651 51.9879,38.26987 53.53383,39.3527 54.35833,40.10498 55.18283,40.85726 55.87851,41.92109 56.44535,43.29647 57.01219,44.67185 57.29561,46.38537 57.29561,48.43704 57.29561,51.71972 56.53001,54.2957 54.99879,56.165 53.46758,58.0343 51.17076,59.18932 48.10833,59.63004 L 48.10833,63.09509 44.00056,63.09509 44.00056,59.51606 C 41.6154,59.2729 39.53207,58.32685 37.75056,56.67792 35.96905,55.02899 35.0783,52.15285 35.0783,48.0495 L 35.0783,46.2486 44.00056,46.2486 44.00056,48.50543 C 44.00056,50.98263 44.09258,52.52139 44.27662,53.12169 44.46066,53.722 44.90604,54.02214 45.61275,54.02214 46.2164,54.02214 46.66546,53.81318 46.95993,53.39524 47.25439,52.97731 47.40162,52.35801 47.40162,51.53734 47.40162,49.47048 47.26175,47.99252 46.98201,47.10346 46.70227,46.2144 45.74526,45.24556 44.11098,44.19692 41.38719,42.43401 39.53574,41.13842 38.55666,40.31015 37.57756,39.48188 36.73098,38.31547 36.0169,36.81091 35.30283,35.30635 34.94579,33.60423 34.94579,31.70453 34.94579,28.95377 35.70035,26.79572 37.20948,25.23037 38.71861,23.66503 40.98231,22.69998 44.00056,22.33524 L 44.00056,19.39451 48.10833,19.39451 48.10833,22.33524 C 50.86157,22.69998 52.92282,23.65363 54.29208,25.19617 55.66133,26.73873 56.34596,28.87019 56.34597,31.59055 56.34596,31.97049 56.31652,32.548 56.25763,33.32307 M 16,76 L 19.92446,72.625 29.47838,84 43.12683,73.4375 52.68075,84 60.86982,73.4375 71.78859,84 77.24798,73.4375 86.8019,84 86,8 16,8 M 5.75,4 L 92,4 92,98 81.21875,85 75.05804,98 62.73661,85 53.49554,98 42.71429,85 27.3125,98 16.53125,84 5.75,97 " ></path>
</svg>