<?xml version="1.0" standalone="no"?>
<!DOCTYPE svg PUBLIC "-//W3C//DTD SVG 1.1//EN" "http://www.w3.org/Graphics/SVG/1.1/DTD/svg11.dtd">
<!--App : DrStudio-->
<!--Author : Charles A.D. BONDJE DOUE-->
<!--version : 1.0-->
<!--description : File generate by SVGDrawing2DEncoderVisitor-->
<svg width="100" height="100" id="LayerDocument_54136970" viewBox="0 0 100 100" version="1.1" xmlns="http://www.w3.org/2000/svg" xmlns:xlink="http://www.w3.org/1999/xlink">
	<path id="Path_57050061" d="M 5,9.999999 C 5,7.238576 6.790861,5 9,5 L 92,5 C 94.20914,5 96,7.238576 96,10 L 96,89 C 96,91.76142 94.20914,94 92,94 L 9,94 C 6.790861,94 5,91.76142 5,89 zM 9,84 C 9,86.76142 10.79086,89 13,89 L 87,89 C 89.20914,89 91,86.76142 91,84 L 91.00001,33.05 C 91.00001,33.02238 90.97762,33 90.95,33 L 9.05,33 C 9.022386,33 9,33.02238 9,33.05 zM 46.78707,57.90473 C 48.11705,58.3531 49.10732,59.08716 49.75785,60.1069 50.40839,61.12663 50.73366,63.51685 50.73366,67.27754 50.73366,70.06898 50.41562,72.23489 49.77954,73.77529 49.14346,75.31569 48.04477,76.48727 46.48349,77.29005 44.9222,78.09283 42.91999,78.49422 40.47686,78.49422 37.70123,78.49422 35.52193,78.02801 33.93896,77.09557 32.35599,76.16313 31.31513,75.02108 30.81638,73.66941 30.31764,72.31774 30.06827,69.97219 30.06827,66.63277 L 30.06827,63.85714 38.82883,63.85714 38.82883,69.56018 C 38.82883,71.0781 38.91918,72.04307 39.09989,72.45507 39.28059,72.86708 39.68176,73.07308 40.30338,73.07308 40.98283,73.07308 41.43098,72.81287 41.64783,72.29244 41.86467,71.77201 41.97309,70.41311 41.97309,68.21574 L 41.97309,65.78707 C 41.97309,64.44263 41.8213,63.45959 41.51772,62.83797 41.21413,62.21634 40.76599,61.80795 40.17327,61.61279 39.58056,61.41763 38.43128,61.30559 36.72543,61.27668 L 36.72543,56.18081 C 38.80715,56.18081 40.09377,56.1013 40.58528,55.94228 41.0768,55.78326 41.43098,55.4363 41.64783,54.90142 41.86467,54.36653 41.97309,53.52806 41.97309,52.38601 L 41.97309,50.43439 C 41.97309,49.2056 41.8466,48.39605 41.59361,48.00572 41.34063,47.6154 40.94669,47.42024 40.4118,47.42024 39.80464,47.42024 39.38902,47.62624 39.16494,48.03825 38.94087,48.45026 38.82883,49.32848 38.82883,50.67292 L 38.82883,53.55697 30.06827,53.55697 30.06827,50.5645 C 30.06827,47.21062 30.83445,44.94458 32.36683,43.76639 33.8992,42.5882 36.33511,41.9991 39.67453,41.9991 43.85242,41.9991 46.68587,42.81532 48.17488,44.44776 49.66389,46.0802 50.40839,48.34827 50.40839,51.25197 50.40839,53.21668 50.14095,54.63606 49.60606,55.51011 49.07117,56.38416 48.13151,57.18236 46.78707,57.90473 zM 67.38741,42.693 L 67.38741,77.80032 58.62684,77.80032 58.62684,58.97811 C 58.62684,56.26032 58.56179,54.62674 58.43168,54.0774 58.30157,53.52806 57.94378,53.11244 57.3583,52.83054 56.77281,52.54864 55.46812,52.40769 53.44423,52.40769 L 52.57685,52.40769 52.57685,48.31473 C 56.81257,47.40307 60.02911,45.52916 62.22648,42.693 " ></path>
</svg>