<?xml version="1.0" standalone="no"?>
<!DOCTYPE svg PUBLIC "-//W3C//DTD SVG 1.1//EN" "http://www.w3.org/Graphics/SVG/1.1/DTD/svg11.dtd">
<!--App : DrStudio-->
<!--Author : Charles A.D. BONDJE DOUE-->
<!--version : 1.0-->
<!--description : File generate by SVGDrawing2DEncoderVisitor-->
<svg width="100" height="100" id="LayerDocument_55677733" viewBox="0 0 100 100" version="1.1" xmlns="http://www.w3.org/2000/svg" xmlns:xlink="http://www.w3.org/1999/xlink">
	<path id="Path_66063655" d="M 57.12847,7.932543 C 60.14052,4.700096 64.87514,4.216213 67.70353,6.851759 L 90.38338,27.98525 C 93.21176,30.6208 93.06288,35.37775 90.05083,38.6102 L 38.92141,93.48079 C 35.90936,96.71324 31.17474,97.19712 28.34635,94.56158 L 5.666502,73.42809 C 2.83811,70.79254 2.987,66.03558 5.999051,62.80314 zM 79.91644,40.1016 C 83.15527,36.62578 82.96315,31.18248 79.48733,27.94365 76.01151,24.70481 70.56821,24.89693 67.32938,28.37275 64.09054,31.84857 64.28265,37.29187 67.75848,40.5307 71.2343,43.76954 76.6776,43.57742 79.91644,40.1016 " ></path>
</svg>