<?xml version="1.0" standalone="no"?>
<!DOCTYPE svg PUBLIC "-//W3C//DTD SVG 1.1//EN" "http://www.w3.org/Graphics/SVG/1.1/DTD/svg11.dtd">
<!--App : DrStudio-->
<!--Author : Charles A.D. BONDJE DOUE-->
<!--version : 1.0-->
<!--description : File generate by SVGDrawing2DEncoderVisitor-->
<svg width="400" height="300" id="LayerDocument_21084988" viewBox="0 0 400 300" version="1.1" xmlns="http://www.w3.org/2000/svg" xmlns:xlink="http://www.w3.org/1999/xlink">
	<path id="Path_3359112" d="M 254.9132,99.38573 C 226.9075,75.27646 184.6599,78.43516 160.5506,106.4409 136.4414,134.4466 139.6001,176.6942 167.6058,200.8034 195.6115,224.9127 237.8591,221.754 261.9684,193.7483 262.9463,192.6123 264.66,192.4842 265.796,193.4621 266.9319,194.4401 267.0601,196.1537 266.0822,197.2897 240.017,227.5674 194.3421,230.9824 164.0644,204.9172 133.7867,178.8521 130.3717,133.1772 156.4368,102.8995 182.502,72.62175 228.1769,69.20679 258.4547,95.27195 M 254.9132,99.38573 C 256.0492,100.3637 257.7629,100.2355 258.7408,99.09956 259.7188,97.96357 259.5906,96.24989 258.4546,95.27195 M 259.0484,94.58225 C 228.3898,68.18919 182.1402,71.6471 155.7471,102.3057 129.3541,132.9643 132.812,179.2139 163.4706,205.6069 194.1292,232 240.3788,228.5421 266.7719,197.8835 271.1572,192.7893 270.5827,185.1046 265.4885,180.7192 260.3944,176.3338 252.7097,176.9084 248.3243,182.0025 230.702,202.4729 199.8219,204.7817 179.3515,187.1594 158.8812,169.5371 156.5724,138.657 174.1947,118.1866 191.817,97.71631 222.6971,95.4075 243.1674,113.0298 M 259.0484,94.58226 C 264.1425,98.96765 264.717,106.6523 260.3317,111.7465 255.9463,116.8406 248.2616,117.4152 243.1674,113.0298 " ></path>
</svg>