<?xml version="1.0" standalone="no"?>
<!DOCTYPE svg PUBLIC "-//W3C//DTD SVG 1.1//EN" "http://www.w3.org/Graphics/SVG/1.1/DTD/svg11.dtd">
<!--App : DrStudio-->
<!--Author : Charles A.D. BONDJE DOUE-->
<!--version : 1.0-->
<!--description : File generate by SVGDrawing2DEncoderVisitor-->
<svg width="100" height="100" id="LayerDocument_17056162" viewBox="0 0 100 100" version="1.1" xmlns="http://www.w3.org/2000/svg" xmlns:xlink="http://www.w3.org/1999/xlink">
	<polygon id="bullet" points="6,75.64929 18.09479,75.64929 18.09479,94 44.78673,75.64929 94,75.64929 94,6 6,6" ></polygon>
	<path id="dot" d="M 74.15225,55.38084 C 74.15225,58.00709 72.02328,60.13606 69.39704,60.13606 66.77076,60.13606 64.64178,58.00709 64.64178,55.38084 64.64178,52.75457 66.77076,50.6256 69.39704,50.6256 72.02328,50.6256 74.15225,52.75457 74.15225,55.38084 zM 57.9688,55.38081 C 57.9688,58.00709 55.83982,60.13606 53.21355,60.13606 50.58731,60.13606 48.45833,58.00709 48.45833,55.38081 48.45833,52.75457 50.58731,50.6256 53.21355,50.6256 55.83982,50.6256 57.9688,52.75457 57.9688,55.38081 zM 41.78535,55.38081 C 41.78535,58.00709 39.65637,60.13606 37.03011,60.13606 34.40387,60.13606 32.27488,58.00709 32.27488,55.38081 32.27488,52.75457 34.40387,50.6256 37.03011,50.6256 39.65637,50.6256 41.78535,52.75457 41.78535,55.38081 " ></path>
</svg>