<?xml version="1.0" standalone="no"?>
<!DOCTYPE svg PUBLIC "-//W3C//DTD SVG 1.1//EN" "http://www.w3.org/Graphics/SVG/1.1/DTD/svg11.dtd">
<!--App : DrStudio-->
<!--Author : Charles A.D. BONDJE DOUE-->
<!--version : 1.0-->
<!--description : File generate by SVGDrawing2DEncoderVisitor-->
<svg width="256" height="256" id="LayerDocument_13732159" viewBox="0 0 256 256" version="1.1" xmlns="http://www.w3.org/2000/svg" xmlns:xlink="http://www.w3.org/1999/xlink" >
	<path id="Spline1"  fill="transparent" stroke-width="25" d="M 187,116 C 179.1667,120.5 159.8333,142.3333 140,143 120.1667,143.6667 84,123.3333 68,120 52,116.6667 49,118.1667 44,123 39,127.8333 35.5,133.6667 38,149 40.5,164.3333 43.66666,207.8333 59,215 74.33334,222.1667 104.5,192.6667 130,192 155.5,191.3333 196.5,228.8333 212,211 227.5,193.1667 239.1667,113.5 223,85 206.8333,56.5 133,47.5 115,40 " ></path>
	<path id="Path1" d="M 186.9674,94 C 186.9674,119.3871 166.3871,139.9674 141,139.9674 115.6129,139.9674 95.03262,119.3871 95.03262,94 95.03262,68.61291 115.6129,48.03262 141,48.03262 166.3871,48.03262 186.9674,68.61291 186.9674,94 zM 162.2132,94 C 162.2132,82.28426 152.7157,72.7868 141,72.7868 129.2843,72.7868 119.7868,82.28426 119.7868,94 119.7868,105.7157 129.2843,115.2132 141,115.2132 152.7157,115.2132 162.2132,105.7157 162.2132,94 " ></path>
</svg>