<?xml version="1.0" standalone="no"?>
<!DOCTYPE svg PUBLIC "-//W3C//DTD SVG 1.1//EN" "http://www.w3.org/Graphics/SVG/1.1/DTD/svg11.dtd">
<!--App : DrStudio-->
<!--Author : Charles A.D. BONDJE DOUE-->
<!--version : 1.0-->
<!--description : File generate by SVGDrawing2DEncoderVisitor-->
<svg width="100" height="100" id="LayerDocument_31044272" viewBox="0 0 100 100" version="1.1" xmlns="http://www.w3.org/2000/svg" xmlns:xlink="http://www.w3.org/1999/xlink">
	<path id="Path_41288376" d="M 54.04169,48.06053 L 89.35689,48.06053 C 89.42748,48.5194 89.4716,49.01356 89.48925,49.54303 89.5069,50.07249 89.51573,50.88433 89.51573,51.97856 89.51573,63.59145 86.19775,72.99825 79.56181,80.19894 72.92588,87.39965 64.34857,91 53.82991,91 41.79343,91 31.87482,87.16139 24.07407,79.48417 16.27331,71.80696 12.37293,62.05601 12.37293,50.23133 12.37293,38.51254 16.29096,28.82336 24.12701,21.1638 31.96306,13.50423 41.86403,9.674442 53.82991,9.674442 60.14817,9.674442 65.93696,10.9981 71.1963,13.64542 76.45563,16.29273 81.15021,20.24606 85.28002,25.5054 L 74.10835,33.76502 C 71.31983,30.30587 68.39014,27.80856 65.31925,26.27312 62.24836,24.73767 58.70096,23.96995 54.67704,23.96995 47.01748,23.96995 40.89334,26.35253 36.30466,31.1177 31.71599,35.88288 29.42163,42.25409 29.42165,50.23133 29.42163,58.06738 31.72481,64.39446 36.33114,69.21259 40.93747,74.0307 46.94688,76.43977 54.35936,76.43977 59.79519,76.43977 64.20737,75.16022 67.59594,72.60115 70.9845,70.04208 72.67879,66.69764 72.67879,62.56783 L 72.67879,61.72068 54.04169,61.72068 z" ></path>
</svg>