<?xml version="1.0" standalone="no"?>
<!DOCTYPE svg PUBLIC "-//W3C//DTD SVG 1.1//EN" "http://www.w3.org/Graphics/SVG/1.1/DTD/svg11.dtd">
<!--App : DrStudio-->
<!--Author : Charles A.D. BONDJE DOUE-->
<!--version : 1.0-->
<!--description : File generate by SVGDrawing2DEncoderVisitor-->
<svg width="100" height="100" id="LayerDocument_46114061" viewBox="0 0 100 100" version="1.1" xmlns="http://www.w3.org/2000/svg" xmlns:xlink="http://www.w3.org/1999/xlink">
	<path id="Path_32371356" d="M 11.15762,39.49743 L 40.49743,39.49743 40.49743,10.15762 11.15762,10.15762 zM 6.655052,5.655052 L 45,5.655052 45,44 6.655052,44 zM 60.50257,39.49744 L 89.84238,39.49744 89.84238,10.15762 60.50257,10.15762 zM 56,5.655052 L 94.34495,5.655052 94.34495,44 56,44 zM 11.15762,90.84238 L 40.49744,90.84238 40.49744,61.50256 11.15762,61.50256 zM 6.655052,57 L 45,57 45,95.34495 6.655052,95.34495 zM 60.50257,90.84238 L 89.84238,90.84238 89.84238,61.50256 60.50257,61.50256 zM 56,57 L 94.34495,57 94.34495,95.34495 56,95.34495 z" ></path>
</svg>