<?xml version="1.0" standalone="no"?>
<!DOCTYPE svg PUBLIC "-//W3C//DTD SVG 1.1//EN" "http://www.w3.org/Graphics/SVG/1.1/DTD/svg11.dtd">
<!--App : DrStudio-->
<!--Author : Charles A.D. BONDJE DOUE-->
<!--version : 1.0-->
<!--description : File generate by SVGDrawing2DEncoderVisitor-->
<svg width="100" height="100" id="mysql_logo" viewBox="0 0 100 100" xmlns:xlink="http://www.w3.org/1999/xlink">
	<g id="Group_9884931" transform="matrix(0.2069298 0 0 0.2069298 -3.360575 14.51351)">
		<path id="Path_18465792" d="M 36,256.235 C 36,256.235 48.8418,256.235 48.8418,256.235 48.8418,256.235 48.8418,205.524 48.8418,205.524 48.8418,205.524 68.7226,249.732 68.7226,249.732 71.0683,255.083 74.2793,256.976 80.5762,256.976 86.874,256.976 89.9609,255.083 92.3076,249.732 92.3076,249.732 112.1875,205.524 112.1875,205.524 112.1875,205.524 112.1875,256.235 112.1875,256.235 112.1875,256.235 125.0303,256.235 125.0303,256.235 125.0303,256.235 125.0303,205.607 125.0303,205.607 125.0303,200.668 123.0537,198.28 118.9795,197.046 109.2246,194 102.6797,196.634 99.71581,203.22 99.71581,203.22 80.206,246.85 80.206,246.85 80.206,246.85 61.3135,203.22 61.3135,203.22 58.4736,196.634 51.8056,194 42.05078,197.046 37.97559,198.28 36,200.668 36,205.607 36,205.607 36,256.235 36,256.235 z" />
		<path id="Path_37917256" d="M 135.0323,197.749 C 135.0323,197.749 147.8703,197.749 147.8703,197.749 147.8703,197.749 147.8703,225.687 147.8703,225.687 147.7503,227.205 148.3573,230.767 155.3923,230.878 158.9813,230.934 183.0923,230.878 183.3173,230.878 183.3173,230.878 183.3173,197.613 183.3173,197.613 183.3173,197.613 196.1853,197.613 196.1853,197.613 196.2443,197.613 196.1723,242.977 196.1733,243.17 196.2443,254.358 182.2913,256.788 175.8603,256.976 175.8603,256.976 135.3113,256.976 135.3113,256.976 135.3113,256.976 135.3113,248.337 135.3113,248.337 135.3823,248.337 175.8303,248.345 175.9323,248.335 184.1973,247.462 183.2213,243.354 183.2203,241.971 183.2203,241.971 183.2203,238.603 183.2203,238.603 183.2203,238.603 155.9253,238.603 155.9253,238.603 143.2263,238.486 135.1393,232.944 135.0393,226.568 135.0303,225.977 135.3133,198.028 135.0323,197.749 z" />
		<path id="Path_11103641" d="M 206.2443,256.976 C 206.2443,256.976 243.1643,256.976 243.1643,256.976 247.4863,256.976 251.6853,256.071 255.0193,254.506 260.5753,251.955 263.2923,248.498 263.2923,243.969 263.2923,243.969 263.2923,234.585 263.2923,234.585 263.2923,230.88 260.2053,227.422 254.1543,225.118 250.9433,223.882 246.9923,223.224 243.1643,223.224 243.1643,223.224 227.6053,223.224 227.6053,223.224 222.4203,223.224 219.9503,221.66 219.3333,218.203 219.2093,217.791 219.2093,217.461 219.2093,217.05 219.2093,217.05 219.2093,211.206 219.2093,211.206 219.2093,210.876 219.2093,210.546 219.3333,210.135 219.9503,207.501 221.3093,206.759 225.8773,206.348 226.2483,206.348 226.7413,206.265 227.1123,206.265 227.1123,206.265 263.7863,206.265 263.7863,206.265 263.7863,206.265 263.7863,197.705 263.7863,197.705 263.7863,197.705 227.7293,197.705 227.7293,197.705 222.5433,197.705 219.8263,198.034 217.3573,198.774 209.7013,201.162 206.3673,204.949 206.3673,211.535 206.3673,211.535 206.3673,219.026 206.3673,219.026 206.3673,224.789 212.9123,229.728 223.9013,230.88 225.1373,230.962 226.3713,231.044 227.6053,231.044 227.6053,231.044 240.9413,231.044 240.9413,231.044 241.4363,231.044 241.9303,231.044 242.3003,231.127 246.3753,231.457 248.1033,232.197 249.3393,233.679 250.0793,234.419 250.3263,235.161 250.3263,235.984 250.3263,235.984 250.3263,243.475 250.3263,243.475 250.3263,244.381 249.7093,245.534 248.4753,246.521 247.3633,247.509 245.5113,248.168 243.0413,248.333 242.5473,248.333 242.1773,248.415 241.6833,248.415 241.6833,248.415 206.2443,248.415 206.2443,248.415 206.2443,248.415 206.2443,256.976 206.2443,256.976 z" />
		<path id="Path_52596136" d="M 273.7863,242.076 C 273.7863,250.884 280.3303,255.824 293.5433,256.812 294.7773,256.894 296.0133,256.976 297.2473,256.976 297.2473,256.976 330.7113,256.976 330.7113,256.976 330.7113,256.976 330.7113,248.415 330.7113,248.415 330.7113,248.415 297.0003,248.415 297.0003,248.415 289.4683,248.415 286.6283,246.521 286.6283,241.994 286.6283,241.994 286.6283,197.705 286.6283,197.705 286.6283,197.705 273.7863,197.705 273.7863,197.705 273.7863,197.705 273.7863,242.076 273.7863,242.076 z" />
		<path id="Path_8957931" d="M 341.7113,243.711 C 341.7113,243.711 341.7113,213.189 341.7113,213.189 341.7113,205.435 347.1563,200.732 357.9203,199.247 359.0343,199.083 360.2723,199 361.3853,199 361.3853,199 385.7613,199 385.7613,199 386.9983,199 388.1133,199.083 389.3503,199.247 400.1153,200.732 405.5593,205.435 405.5593,213.189 405.5593,213.189 405.5593,243.711 405.5593,243.711 405.5593,250.002 403.2473,253.369 397.9183,255.563 397.9183,255.563 410.5683,266.981 410.5683,266.981 410.5683,266.981 395.6573,266.981 395.6573,266.981 395.6573,266.981 385.4233,257.743 385.4233,257.743 385.4233,257.743 375.1203,258.396 375.1203,258.396 375.1203,258.396 361.3853,258.396 361.3853,258.396 359.0343,258.396 356.5603,258.065 353.8373,257.323 345.6713,255.096 341.7113,250.806 341.7113,243.711 zM 355.5723,242.969 C 355.5723,243.382 355.6953,243.794 355.8193,244.289 356.5613,247.836 359.9023,249.816 364.9753,249.816 364.9753,249.816 376.6423,249.816 376.6423,249.816 376.6423,249.816 365.9253,240.141 365.9253,240.141 365.9253,240.141 380.8363,240.141 380.8363,240.141 380.8363,240.141 390.1833,248.579 390.1833,248.579 391.9053,247.661 393.0393,246.257 393.4353,244.454 393.5583,244.042 393.5583,243.629 393.5583,243.217 393.5583,243.217 393.5583,213.932 393.5583,213.932 393.5583,213.602 393.5583,213.189 393.4353,212.776 392.6923,209.477 389.3513,207.58 384.4023,207.58 384.4023,207.58 364.9753,207.58 364.9753,207.58 359.2843,207.58 355.5723,210.055 355.5723,213.932 355.5723,213.932 355.5723,242.969 355.5723,242.969 z" />
		<path id="Path_25476834" d="M 468.289,190.997 C 460.395,190.783 454.365,191.517 449.21,193.691 447.745,194.309 445.409,194.325 445.17,196.161 445.975,197.005 446.1,198.265 446.74,199.303 447.971,201.295 450.049,203.964 451.903,205.364 453.929,206.893 456.017,208.529 458.189,209.853 462.052,212.209 466.365,213.554 470.085,215.914 472.277,217.305 474.455,219.057 476.594,220.627 477.651,221.403 478.362,222.61 479.736,223.096 479.736,223.022 479.736,222.947 479.736,222.872 479.014,221.953 478.828,220.689 478.165,219.729 477.193,218.757 476.22,217.784 475.247,216.811 472.394,213.024 468.772,209.698 464.922,206.935 461.852,204.731 454.98,201.754 453.699,198.181 453.624,198.106 453.55,198.031 453.474,197.956 455.651,197.711 458.2,196.923 460.209,196.385 463.584,195.48 466.6,195.714 470.085,194.814 471.656,194.365 473.227,193.915 474.799,193.467 474.799,193.167 474.799,192.869 474.799,192.569 473.037,190.761 471.781,188.369 469.86,186.733 464.834,182.453 459.348,178.177 453.699,174.6114 450.566,172.6338 446.694,171.3487 443.374,169.6729 442.257,169.1094 440.295,168.8164 439.557,167.877 437.813,165.6533 436.863,162.835 435.518,160.2451 432.7,154.8194 429.933,148.8936 427.437,143.1856 425.734,139.293 424.622,135.4541 422.499,131.9619 412.307,115.2051 401.336,105.0908 384.341,95.1494 380.725,93.0352 376.371,92.2002 371.77,91.1094 369.302,90.96 366.832,90.8096 364.363,90.6602 362.856,90.0303 361.288,88.1865 359.874,87.293 354.244,83.73633 339.803,76 335.633,86.1709 333,92.5908 339.568,98.8555 341.917,102.1084 343.566,104.3906 345.677,106.9492 346.855,109.5156 347.63,111.2022 347.764,112.8936 348.427,114.6787 350.059,119.0752 351.478,123.8584 353.589,127.9219 354.656,129.9776 355.832,132.1436 357.181,133.9824 358.008,135.1104 359.425,135.6074 359.649,137.3496 358.263,139.2891 358.184,142.2998 357.405,144.7569 353.897,155.8184 355.22,169.5674 360.323,177.754 361.889,180.267 365.577,185.657 370.648,183.59 375.084,181.783 374.093,176.184 375.362,171.2442 375.649,170.124 375.473,169.3008 376.035,168.5508 376.035,168.625 376.035,168.7002 376.035,168.7754 377.382,171.4688 378.729,174.1621 380.076,176.855 383.066,181.671 388.373,186.704 392.87,190.1 395.202,191.861 397.038,194.906 400.053,195.936 400.053,195.861 400.053,195.787 400.053,195.711 399.977,195.711 399.903,195.711 399.828,195.711 399.244,194.8 398.33,194.423 397.584,193.691 395.827,191.969 393.874,189.828 392.421,187.855 388.331,182.302 384.716,176.224 381.423,169.8975 379.85,166.877 378.483,163.544 377.157,160.4697 376.646,159.2842 376.652,157.4922 375.587,156.878 374.135,159.1309 371.996,160.9522 370.873,163.6123 369.077,167.8643 368.845,173.0498 368.18,178.427 367.786,178.568 367.961,178.471 367.73,178.651 364.604,177.897 363.505,174.6787 362.344,171.918 359.405,164.9356 358.859,153.6924 361.445,145.6553 362.114,143.5762 365.138,137.0264 363.914,135.1055 363.33,133.1885 361.402,132.0801 360.323,130.6153 358.988,128.8047 357.655,126.4209 356.731,124.3301 354.326,118.8858 353.203,112.7744 350.671,107.2715 349.461,104.6406 347.414,101.9785 345.733,99.6397 343.872,97.0489 341.788,95.1406 340.346,92.0069 339.833,90.8936 339.136,89.1113 339.897,87.9668 340.139,87.1943 340.48,86.8721 341.244,86.6201 342.546,85.61621 346.172,86.9541 347.528,87.5176 351.128,89.0127 354.132,90.4365 357.181,92.4561 358.645,93.4268 360.125,95.3037 361.894,95.8233 362.567,95.8233 363.241,95.8233 363.914,95.8233 367.074,96.5498 370.614,96.0489 373.566,96.9453 378.784,98.5313 383.46,100.9981 387.707,103.6797 400.645,111.8487 411.223,123.4776 418.459,137.3496 419.623,139.583 420.127,141.7149 421.152,144.084 423.221,148.8614 425.827,153.7774 427.885,158.4492 429.939,163.1104 431.941,167.8145 434.844,171.6934 436.371,173.7324 442.266,174.8262 444.945,175.958 446.823,176.752 449.9,177.579 451.679,178.651 455.077,180.701 458.369,183.141 461.556,185.386 463.149,186.508 468.045,188.969 468.289,190.997 z" />
		<path id="Path_56400912" d="M 371.041,103.0303 C 369.395,103 368.231,103.21 367,103.4786 367,103.5537 367,103.6289 367,103.7032 367.075,103.7032 367.15,103.7032 367.225,103.7032 368.01,105.3164 369.396,106.3545 370.367,107.7442 371.115,109.3155 371.863,110.8868 372.612,112.4571 372.686,112.3828 372.762,112.3077 372.836,112.2334 374.226,111.2539 374.863,109.6866 374.856,107.295 374.299,106.709 374.217,105.9737 373.734,105.2744 373.092,104.3428 371.85,103.8135 371.041,103.0303 z" />
		<path id="Path_16106846" d="M 440,245.463 C 440,251.117 444.467,254.927 449.464,254.927 454.461,254.927 458.928,251.117 458.928,245.463 458.928,239.81 454.461,236 449.464,236 444.467,236 440,239.81 440,245.463 zM 456.808,245.463 C 456.808,249.753 453.528,252.959 449.464,252.959 445.351,252.959 442.12,249.753 442.12,245.463 442.12,241.173 445.351,237.967 449.464,237.967 453.528,237.967 456.808,241.173 456.808,245.463 zM 452.014,250.864 C 452.014,250.864 454.133,250.864 454.133,250.864 454.133,250.864 451.03,246.12 451.03,246.12 452.695,245.943 453.956,245.135 453.956,243.167 453.956,240.971 452.569,240.063 449.894,240.063 449.894,240.063 445.679,240.063 445.679,240.063 445.679,240.063 445.679,250.864 445.679,250.864 445.679,250.864 447.496,250.864 447.496,250.864 447.496,250.864 447.496,246.195 447.496,246.195 447.496,246.195 449.187,246.195 449.187,246.195 449.187,246.195 452.014,250.864 452.014,250.864 zM 447.496,244.681 C 447.496,244.681 447.496,241.577 447.496,241.577 447.496,241.577 449.59,241.577 449.59,241.577 450.676,241.577 451.988,241.779 451.988,243.041 451.988,244.554 450.802,244.681 449.439,244.681 449.439,244.681 447.496,244.681 447.496,244.681 z" />
	</g>
</svg>