<?xml version="1.0" standalone="no"?>
<!DOCTYPE svg PUBLIC "-//W3C//DTD SVG 1.1//EN" "http://www.w3.org/Graphics/SVG/1.1/DTD/svg11.dtd">
<!--App : DrStudio-->
<!--Author : Charles A.D. BONDJE DOUE-->
<!--version : 1.0-->
<!--description : File generate by SVGDrawing2DEncoderVisitor-->
<svg width="256" height="256" id="LayerDocument_56073962" viewBox="0 0 256 256" version="1.1" xmlns="http://www.w3.org/2000/svg" xmlns:xlink="http://www.w3.org/1999/xlink">
	<path id="Path_2218447" d="M 6,73 C 6.000001,65.8203 12.71573,60 21,60 L 235,60 C 243.2843,60 250,65.8203 250,73 L 250,184 C 250,191.1797 243.2843,197 235,197 L 21,197 C 12.71573,197 5.999999,191.1797 6,184 zM 56,183 L 224,183 224,73 56,73 zM 235,178 C 235,179.1046 236.3431,180 238,180 L 238,180 C 239.6569,180 241,179.1046 241,178 L 241,78 C 241,76.89543 239.6569,76 238,76 L 238,76 C 236.3431,76 235,76.89543 235,78 zM 45.86607,128 C 45.86607,119.7897 39.21031,113.1339 31,113.1339 22.78969,113.1339 16.13393,119.7897 16.13393,128 16.13393,136.2103 22.78969,142.8661 31,142.8661 39.21031,142.8661 45.86607,136.2103 45.86607,128 " ></path>
</svg>