<?xml version="1.0" standalone="no"?>
<!DOCTYPE svg PUBLIC "-//W3C//DTD SVG 1.1//EN" "http://www.w3.org/Graphics/SVG/1.1/DTD/svg11.dtd">
<!--App : DrStudio-->
<!--Author : Charles A.D. BONDJE DOUE-->
<!--version : 1.0-->
<!--description : File generate by SVGDrawing2DEncoderVisitor-->
<svg width="256" height="256" id="LayerDocument_56073962" viewBox="0 0 256 256" version="1.1" xmlns="http://www.w3.org/2000/svg" xmlns:xlink="http://www.w3.org/1999/xlink">
	<path id="Path_21315958" d="M 72.5,250.5 C 65.3203,250.5 59.5,243.7842 59.5,235.5 L 59.50003,21.49998 C 59.50003,13.21571 65.32033,6.499978 72.50003,6.499979 L 183.5,6.499994 C 190.6797,6.499995 196.5,13.21572 196.5,21.5 L 196.5,235.5 C 196.5,243.7843 190.6797,250.5 183.5,250.5 zM 182.5,200.5 L 182.5,32.49999 72.50003,32.49998 72.50001,200.5 zM 77.50003,21.49998 C 76.39546,21.49998 75.50003,20.15684 75.50003,18.49998 L 75.50003,18.49998 C 75.50003,16.84312 76.39546,15.49998 77.50003,15.49998 L 177.5,15.49999 C 178.6046,15.49999 179.5,16.84313 179.5,18.49999 L 179.5,18.49999 C 179.5,20.15685 178.6046,21.49999 177.5,21.49999 zM 127.5,210.6339 C 119.2897,210.6339 112.6339,217.2897 112.6339,225.5 112.6339,233.7103 119.2897,240.3661 127.5,240.3661 135.7103,240.3661 142.3661,233.7103 142.3661,225.5 142.3661,217.2897 135.7103,210.6339 127.5,210.6339 M 77.50003,21.49998 C 76.39546,21.49998 75.50003,20.15684 75.50003,18.49998 L 75.50003,18.49998 C 75.50003,16.84312 76.39546,15.49998 77.50003,15.49998 L 177.5,15.49999 C 178.6046,15.49999 179.5,16.84313 179.5,18.49999 L 179.5,18.49999 C 179.5,20.15685 178.6046,21.49999 177.5,21.49999 " ></path>
</svg>