<?xml version="1.0" standalone="no"?>
<!DOCTYPE svg PUBLIC "-//W3C//DTD SVG 1.1//EN" "http://www.w3.org/Graphics/SVG/1.1/DTD/svg11.dtd">
<!--App : DrStudio-->
<!--Author : Charles A.D. BONDJE DOUE-->
<!--version : 1.0-->
<!--description : File generate by SVGDrawing2DEncoderVisitor-->
<svg width="100" height="100" id="LayerDocument_14738004" viewBox="0 0 100 100" version="1.1" xmlns="http://www.w3.org/2000/svg" xmlns:xlink="http://www.w3.org/1999/xlink">
	<path id="Path_51411086" d="M 45.40911,87.13137 C 43.06879,86.9957 40.11795,86.40215 36.5566,85.3507 32.99524,84.29925 30.55317,83.3326 29.23038,82.45074 L 32.89349,73.08946 C 34.65721,74.37833 36.98905,75.51458 39.88901,76.49819 42.78897,77.4818 45.37519,77.97361 47.64768,77.97361 51.61605,77.97361 54.80431,76.88824 57.21246,74.71751 59.62062,72.54678 60.8247,69.78249 60.8247,66.42464 60.8247,64.32175 60.47703,62.45628 59.78173,60.82822 59.08641,59.20017 58.13672,57.88586 56.93264,56.88529 55.72857,55.88472 52.98971,54.38387 48.71609,52.38272 L 42.71266,49.58451 C 37.62501,47.21028 34.07213,44.39511 32.05403,41.13901 30.03593,37.88292 29.02687,33.96543 29.02687,29.38654 29.02687,24.67198 30.51077,20.56795 33.47857,17.07442 36.44637,13.5809 40.42321,11.37625 45.40911,10.46047 L 45.40911,2.320232 52.48095,2.320232 52.48095,10.10434 C 59.77325,10.4096 64.70827,11.73239 67.28601,14.0727 L 64.28429,22.92522 C 62.92759,21.94161 60.85861,20.99191 58.07736,20.07614 55.29611,19.16035 52.71837,18.70247 50.34414,18.70247 46.88453,18.70247 44.16264,19.68608 42.17845,21.65331 40.19427,23.62054 39.20218,26.1474 39.20218,29.23391 39.20218,31.1333 39.55832,32.86311 40.27058,34.42331 40.98285,35.98353 42.00039,37.30632 43.32317,38.39168 44.64596,39.47705 47.22371,40.9355 51.0564,42.76706 L 55.73705,44.95475 C 61.0282,47.43074 64.89481,50.45789 67.33688,54.03621 69.77895,57.61453 71,62.20189 71,67.79831 71,72.41111 69.36346,76.4558 66.09041,79.93236 62.81736,83.40892 58.28087,85.639 52.48095,86.62261 L 52.48095,98.37509 45.40911,98.37509 z" ></path>
</svg>