<?xml version="1.0" standalone="no" ?>
<!DOCTYPE svg PUBLIC "-//W3C//DTD SVG 1.1//EN" "http://www.w3.org/Graphics/SVG/1.1/DTD/svg11.dtd">
<svg xmlns="http://www.w3.org/2000/svg" xmlns:xlink="http://www.w3.org/1999/xlink" viewBox="0 0 100 100" width="100" height="100">
	<rect x="0" y="0" width="2.2222222222222" height="2.2222222222222"/>
	<rect x="0" y="2.2222222222222" width="2.2222222222222" height="2.2222222222222"/>
	<rect x="0" y="4.4444444444444" width="2.2222222222222" height="2.2222222222222"/>
	<rect x="0" y="6.6666666666667" width="2.2222222222222" height="2.2222222222222"/>
	<rect x="0" y="8.8888888888889" width="2.2222222222222" height="2.2222222222222"/>
	<rect x="0" y="11.111111111111" width="2.2222222222222" height="2.2222222222222"/>
	<rect x="0" y="13.333333333333" width="2.2222222222222" height="2.2222222222222"/>
	<rect x="0" y="17.777777777778" width="2.2222222222222" height="2.2222222222222"/>
	<rect x="0" y="22.222222222222" width="2.2222222222222" height="2.2222222222222"/>
	<rect x="0" y="26.666666666667" width="2.2222222222222" height="2.2222222222222"/>
	<rect x="0" y="28.888888888889" width="2.2222222222222" height="2.2222222222222"/>
	<rect x="0" y="35.555555555556" width="2.2222222222222" height="2.2222222222222"/>
	<rect x="0" y="37.777777777778" width="2.2222222222222" height="2.2222222222222"/>
	<rect x="0" y="42.222222222222" width="2.2222222222222" height="2.2222222222222"/>
	<rect x="0" y="46.666666666667" width="2.2222222222222" height="2.2222222222222"/>
	<rect x="0" y="51.111111111111" width="2.2222222222222" height="2.2222222222222"/>
	<rect x="0" y="53.333333333333" width="2.2222222222222" height="2.2222222222222"/>
	<rect x="0" y="55.555555555556" width="2.2222222222222" height="2.2222222222222"/>
	<rect x="0" y="62.222222222222" width="2.2222222222222" height="2.2222222222222"/>
	<rect x="0" y="66.666666666667" width="2.2222222222222" height="2.2222222222222"/>
	<rect x="0" y="73.333333333333" width="2.2222222222222" height="2.2222222222222"/>
	<rect x="0" y="80" width="2.2222222222222" height="2.2222222222222"/>
</svg>
