<?xml version="1.0" standalone="no"?>
<!DOCTYPE svg PUBLIC "-//W3C//DTD SVG 1.1//EN" "http://www.w3.org/Graphics/SVG/1.1/DTD/svg11.dtd">
<!--App : DrStudio-->
<!--Author : Charles A.D. BONDJE DOUE-->
<!--version : 1.0-->
<!--description : File generate by SVGDrawing2DEncoderVisitor-->
<svg width="100" height="100" id="LayerDocument_43878784" viewBox="0 0 100 100" version="1.1" xmlns="http://www.w3.org/2000/svg" xmlns:xlink="http://www.w3.org/1999/xlink">
	<path id="Path_24931596" d="M 0,0 L 0,0 100,0 100,0 100,100 100,100 22,100 0,81 zM 22,11 L 78,11 78,30 22,30 zM 8,11 L 15,11 15,37 85,37 85,11 91,11 91,90 80,90 80,70 33,70 33,90 22,90 8,77 zM 40,78 L 72,78 72,90 40,90 z" ></path>
</svg>