<?xml version="1.0" standalone="no"?>
<!DOCTYPE svg PUBLIC "-//W3C//DTD SVG 1.1//EN" "http://www.w3.org/Graphics/SVG/1.1/DTD/svg11.dtd">
<!--App : DrStudio-->
<!--Author : Charles A.D. BONDJE DOUE-->
<!--version : 1.0-->
<!--description : File generate by SVGDrawing2DEncoderVisitor-->
<svg width="100" height="100" id="LayerDocument_65334480" viewBox="0 0 100 100" version="1.1" xmlns="http://www.w3.org/2000/svg" xmlns:xlink="http://www.w3.org/1999/xlink">
	<path id="Path_66570362" d="M 47.90465,56.81969 L 80.13308,86.15955 88.38953,77.09024 56.16109,47.75038 zM 50.69181,33 C 50.69181,42.77092 42.77092,50.69181 33,50.69181 23.22908,50.69181 15.30819,42.77092 15.30819,33 15.30819,23.22908 23.22908,15.30819 33,15.30819 42.77092,15.30819 50.69181,23.22908 50.69181,33 zM 62,33 C 62,16.98373 49.01627,4 33,4 16.98373,4 4,16.98373 4,33 4,49.01627 16.98373,62 33,62 49.01627,62 62,49.01627 62,33 " ></path>
</svg>