<?xml version="1.0" standalone="no"?>
<!DOCTYPE svg PUBLIC "-//W3C//DTD SVG 1.1//EN" "http://www.w3.org/Graphics/SVG/1.1/DTD/svg11.dtd">
<!--App : DrStudio-->
<!--Author : Charles A.D. BONDJE DOUE-->
<!--version : 1.0-->
<!--description : File generate by SVGDrawing2DEncoderVisitor-->
<svg width="100" height="100" id="LayerDocument_45217388" viewBox="0 0 100 100" version="1.1" xmlns="http://www.w3.org/2000/svg" xmlns:xlink="http://www.w3.org/1999/xlink">
	<path id="char_59881" d="M 86.86146,26.06667 L 86.86146,30.6 59.66145,30.6 59.66145,32.86666 C 59.66145,33.81112 59.48437,34.69653 59.1302,35.52291 58.77604,36.3493 58.292,37.06944 57.67813,37.68333 57.06423,38.29722 56.34409,38.78125 55.5177,39.13542 54.69131,39.48958 53.80589,39.66666 52.86145,39.66666 51.917,39.66666 51.03158,39.48958 50.2052,39.13542 49.37881,38.78125 48.65867,38.29722 48.04479,37.68333 47.4309,37.06944 46.94687,36.3493 46.5927,35.52291 46.23854,34.69653 46.06145,33.81112 46.06145,32.86666 L 46.06145,30.6 14.32812,30.6 14.32812,26.06667 46.06145,26.06667 46.06145,23.8 C 46.06145,22.85556 46.23854,21.97014 46.5927,21.14375 46.94687,20.31736 47.4309,19.59722 48.04479,18.98333 48.65867,18.36945 49.37881,17.88542 50.2052,17.53125 51.03158,17.17708 51.917,17 52.86145,17 53.80589,17 54.69131,17.17708 55.5177,17.53125 56.34409,17.88542 57.06423,18.36945 57.67813,18.98333 58.292,19.59722 58.77604,20.31736 59.1302,21.14375 59.48437,21.97014 59.66145,22.85556 59.66145,23.8 59.66145,26.06667 59.66145,26.06667 59.66145,26.06667 zM 70.99479,62.33333 C 71.93922,62.33333 72.82465,62.51041 73.65104,62.86458 74.47742,63.21874 75.19752,63.70277 75.81144,64.31667 76.42536,64.93055 76.90938,65.65069 77.26356,66.47708 77.61774,67.30347 77.79479,68.18888 77.79479,69.13333 L 77.79479,71.39999 86.86146,71.39999 86.86146,75.93333 77.79479,75.93333 77.79479,78.2 C 77.79479,79.14443 77.61774,80.02985 77.26356,80.85625 76.90938,81.68263 76.42536,82.40277 75.81144,83.01667 75.19752,83.63055 74.47742,84.11458 73.65104,84.46874 72.82465,84.82291 71.93922,84.99999 70.99479,84.99999 70.05033,84.99999 69.16491,84.82291 68.33854,84.46874 67.51215,84.11458 66.792,83.63055 66.17812,83.01667 65.56422,82.40277 65.0802,81.68263 64.72604,80.85625 64.37187,80.02985 64.19479,79.14443 64.19479,78.2 L 64.19479,75.93333 14.32812,75.93333 14.32812,71.39999 64.19479,71.39999 64.19479,69.13333 C 64.19479,68.18888 64.37187,67.30347 64.72604,66.47708 65.0802,65.65069 65.56422,64.93055 66.17812,64.31667 66.792,63.70277 67.51215,63.21874 68.33854,62.86458 69.16491,62.51041 70.05033,62.33333 70.99479,62.33333 zM 30.19479,39.66666 C 31.13923,39.66666 32.02465,39.84375 32.85104,40.19791 33.67743,40.55208 34.39756,41.03611 35.01146,41.65 35.62534,42.26389 36.10938,42.98403 36.46354,43.81041 36.81771,44.6368 36.99479,45.52222 36.99479,46.46666 L 36.99479,48.73333 86.86146,48.73333 86.86146,53.26666 36.99479,53.26666 36.99479,55.53333 C 36.99479,56.47777 36.81771,57.36319 36.46354,58.18958 36.10938,59.01597 35.62534,59.73611 35.01146,60.35 34.39756,60.96389 33.67743,61.44791 32.85104,61.80208 32.02465,62.15625 31.13923,62.33333 30.19479,62.33333 29.25034,62.33333 28.36493,62.15625 27.53854,61.80208 26.71215,61.44791 25.99201,60.96389 25.37813,60.35 24.76423,59.73611 24.2802,59.01597 23.92604,58.18958 23.57187,57.36319 23.39479,56.47777 23.39479,55.53333 L 23.39479,53.26666 14.32812,53.26666 14.32812,48.73333 23.39479,48.73333 23.39479,46.46666 C 23.39479,45.52222 23.57187,44.6368 23.92604,43.81041 24.2802,42.98403 24.76423,42.26389 25.37813,41.65 25.99201,41.03611 26.71215,40.55208 27.53854,40.19791 28.36493,39.84375 29.25034,39.66666 30.19479,39.66666 zM 32.46146,46.46666 C 32.46146,45.85278 32.23714,45.32153 31.78854,44.87291 31.33992,44.42431 30.80867,44.2 30.19479,44.2 29.5809,44.2 29.04965,44.42431 28.60104,44.87291 28.15242,45.32153 27.92812,45.85278 27.92812,46.46666 L 27.92812,55.53333 C 27.92812,56.14722 28.15242,56.67847 28.60104,57.12708 29.04965,57.57569 29.5809,57.8 30.19479,57.8 30.80867,57.8 31.33992,57.57569 31.78854,57.12708 32.23714,56.67847 32.46146,56.14722 32.46146,55.53333 zM 55.12812,23.8 C 55.12812,23.18611 54.90381,22.65486 54.4552,22.20625 54.00658,21.75764 53.47533,21.53333 52.86145,21.53333 52.24756,21.53333 51.71631,21.75764 51.26771,22.20625 50.81909,22.65486 50.59479,23.18611 50.59479,23.8 L 50.59479,32.86666 C 50.59479,33.48055 50.81909,34.0118 51.26771,34.46042 51.71631,34.90903 52.24756,35.13333 52.86145,35.13333 53.47533,35.13333 54.00658,34.90903 54.4552,34.46042 54.90381,34.0118 55.12812,33.48055 55.12812,32.86666 zM 73.26145,69.13333 C 73.26145,68.51944 73.03714,67.98819 72.58854,67.53957 72.13992,67.09097 71.60867,66.86666 70.99479,66.86666 70.38089,66.86666 69.84964,67.09097 69.40104,67.53957 68.95242,67.98819 68.72812,68.51944 68.72812,69.13333 L 68.72812,78.2 C 68.72812,78.81388 68.95242,79.34513 69.40104,79.79375 69.84964,80.24236 70.38089,80.46666 70.99479,80.46666 71.60867,80.46666 72.13992,80.24236 72.58854,79.79375 73.03714,79.34513 73.26145,78.81388 73.26145,78.2 z" ></path>
</svg>