<?xml version="1.0" standalone="no"?>
<!DOCTYPE svg PUBLIC "-//W3C//DTD SVG 1.1//EN" "http://www.w3.org/Graphics/SVG/1.1/DTD/svg11.dtd">
<!--App : DrStudio-->
<!--Author : Charles A.D. BONDJE DOUE-->
<!--version : 1.0-->
<!--description : File generate by SVGDrawing2DEncoderVisitor-->
<svg width="100" height="100" id="LayerDocument_46037613" viewBox="0 0 100 100" version="1.1" xmlns="http://www.w3.org/2000/svg" xmlns:xlink="http://www.w3.org/1999/xlink">
	<path id="Path_4551013" d="M 1.196314,22.85096 C 1.196314,23.98029 46.99247,43.87981 50.26362,43.87981 53.53477,43.87981 99.33092,23.98029 99.33092,22.85096 99.33092,21.72163 53.53477,9.999999 50.26362,9.999999 46.99247,9.999999 1.196314,21.72163 1.196314,22.85096 zM 9.374198,45.04807 C 7.738622,44.69759 -0.1666672,47.81298 1.196314,48.55288 2.559295,49.29279 46.99247,67.20625 50.26362,67.24519 53.53477,67.28413 97.929,50.46106 99.33092,49.72115 100.7328,48.98124 93.95689,44.73653 92.3213,45.04807 90.68573,45.35961 53.02853,59.0673 50.26362,59.0673 47.49871,59.0673 11.00977,45.39855 9.374198,45.04807 zM 9.56891,68.76394 C 7.933332,68.41346 0.0280447,71.52885 1.391026,72.26875 2.754007,73.00865 47.18718,90.92211 50.45833,90.96105 53.72948,91 98.12371,74.17692 99.52563,73.43702 100.9276,72.69711 94.1516,68.4524 92.51601,68.76394 90.88044,69.07549 53.22323,82.78317 50.45833,82.78317 47.69343,82.78317 11.20449,69.11443 9.56891,68.76394 " ></path>
</svg>