<?xml version="1.0" standalone="no"?>
<!DOCTYPE svg PUBLIC "-//W3C//DTD SVG 1.1//EN" "http://www.w3.org/Graphics/SVG/1.1/DTD/svg11.dtd">
<!--App : DrStudio-->
<!--Author : Charles A.D. BONDJE DOUE-->
<!--version : 1.0-->
<!--description : File generate by SVGDrawing2DEncoderVisitor-->
<svg width="100" height="100" id="LayerDocument_1366609" viewBox="0 0 100 100" version="1.1" xmlns="http://www.w3.org/2000/svg" xmlns:xlink="http://www.w3.org/1999/xlink">
	<g id="SvgGroup_62052751">
		<g id="SvgGroup_14250423">
			<path id="Path_57503608" d="M 98.71432,20.73577 C 95.15472,22.31305 91.33534,23.38274 87.32236,23.86031 91.41988,21.4066 94.55643,17.51467 96.04301,12.89138 92.19943,15.16368 87.95684,16.81365 83.43627,17.7081 79.81631,13.84635 74.66727,11.441 68.95612,11.441 57.99937,11.441 49.11547,20.32489 49.11547,31.27564 49.11547,32.82874 49.29073,34.34566 49.62922,35.7962 33.14273,34.96814 18.52367,27.06939 8.739331,15.06696 7.028988,17.99207 6.056006,21.40043 6.056006,25.03872 6.056006,31.92229 9.561238,37.99596 14.87953,41.54939 11.62809,41.44067 8.570084,40.54623 5.892921,39.05949 L 5.892921,39.30728 C 5.892921,48.91637 12.73414,56.936 21.80529,58.76123 20.14331,59.20845 18.39077,59.45624 16.57771,59.45624 15.29657,59.45624 14.05763,59.32934 12.84286,59.08756 15.36895,66.9743 22.69373,72.70947 31.37218,72.8667 24.58533,78.185 16.02777,81.34573 6.732999,81.34573 5.131538,81.34573 3.554097,81.24902 2.000992,81.07375 10.78217,86.71237 21.20715,90 32.41169,90 68.90808,90 88.8576,59.77056 88.8576,33.5541 L 88.79106,30.98566 C 92.68901,28.20546 96.06118,24.71239 98.71432,20.73577 " ></path>
		</g>
	</g>
</svg>