<?xml version="1.0" standalone="no"?>
<!DOCTYPE svg PUBLIC "-//W3C//DTD SVG 1.1//EN" "http://www.w3.org/Graphics/SVG/1.1/DTD/svg11.dtd">
<!--App : DrStudio-->
<!--Author : Charles A.D. BONDJE DOUE-->
<!--version : 1.0-->
<!--description : File generate by SVGDrawing2DEncoderVisitor-->
<svg width="100" height="100" id="LayerDocument_57900983" viewBox="0 0 100 100" version="1.1" xmlns="http://www.w3.org/2000/svg" xmlns:xlink="http://www.w3.org/1999/xlink">
	<path id="Path_38401551" d="M 65.13371,58.80322 C 69.33944,60.25667 73.13542,62.28996 76.52164,64.90308 79.90788,67.51619 82.78386,70.53906 85.14957,73.97167 87.5153,77.40429 89.33211,81.16162 90.60001,85.24365 91.86791,89.32568 92.50186,93.5778 92.50188,98 L 86.56437,98 C 86.56437,92.92838 85.65984,88.22012 83.85075,83.87524 82.04167,79.53035 79.54451,75.7653 76.3593,72.58007 73.17407,69.39485 69.40901,66.8977 65.06413,65.08862 60.71923,63.27953 56.01098,62.375 50.93938,62.375 47.63046,62.375 44.44523,62.79247 41.38371,63.62744 38.32219,64.46239 35.4694,65.64526 32.82536,67.17603 30.18132,68.70678 27.78467,70.54679 25.63542,72.69604 23.48617,74.8453 21.64616,77.24194 20.1154,79.88599 18.58464,82.53002 17.40178,85.3828 16.56681,88.44434 15.73185,91.50586 15.31437,94.69108 15.31437,98 L 9.376874,98 C 9.376874,93.54687 10.02629,89.28703 11.32512,85.22046 12.62394,81.15389 14.46395,77.41975 16.84513,74.01807 19.22632,70.61637 22.11003,67.61669 25.49626,65.01904 28.88249,62.42138 32.66301,60.36491 36.83781,58.84961 34.4257,57.55077 32.26099,55.97363 30.34367,54.11816 28.42635,52.26269 26.79509,50.19849 25.44987,47.92553 24.10466,45.65258 23.06869,43.22502 22.34196,40.64282 21.61524,38.06063 21.25187,35.40885 21.25187,32.6875 21.25187,28.57454 22.02498,24.71671 23.57121,21.11401 25.11743,17.51131 27.23576,14.36474 29.92619,11.67432 32.61662,8.983879 35.76318,6.865555 39.36588,5.319324 42.96859,3.773114 46.82641,2.999999 50.93938,2.999999 55.05233,2.999999 58.91015,3.773114 62.51286,5.319324 66.11556,6.865555 69.26212,8.983879 71.95256,11.67432 74.64299,14.36474 76.76131,17.51131 78.30754,21.11401 79.85376,24.71671 80.62688,28.57454 80.62688,32.6875 80.62688,35.40885 80.26351,38.0529 79.53679,40.61963 78.81006,43.18636 77.77409,45.59847 76.42887,47.85596 75.08366,50.11345 73.46013,52.17765 71.55827,54.04858 69.65642,55.91951 67.51489,57.50439 65.13371,58.80322 zM 27.18937,32.6875 C 27.18937,35.96549 27.81559,39.04248 29.06804,41.91845 30.32048,44.79443 32.02132,47.30705 34.17057,49.4563 36.31982,51.60555 38.83244,53.3064 41.70841,54.55883 44.58439,55.81127 47.66137,56.43749 50.93938,56.43749 54.21737,56.43749 57.29436,55.81127 60.17033,54.55883 63.04631,53.3064 65.55892,51.60555 67.70818,49.4563 69.85741,47.30705 71.55827,44.79443 72.81071,41.91845 74.06316,39.04248 74.68938,35.96549 74.68938,32.6875 74.68938,29.40951 74.06316,26.33252 72.81071,23.45654 71.55827,20.58056 69.85741,18.06795 67.70818,15.9187 65.55892,13.76945 63.04631,12.0686 60.17033,10.81616 57.29436,9.563723 54.21737,8.937502 50.93938,8.937491 47.66137,8.937502 44.58439,9.563723 41.70841,10.81616 38.83244,12.0686 36.31982,13.76945 34.17057,15.9187 32.02132,18.06795 30.32048,20.58056 29.06804,23.45654 27.81559,26.33252 27.18937,29.40951 27.18937,32.6875 " ></path>
</svg>