<?xml version="1.0" standalone="no"?>
<!DOCTYPE svg PUBLIC "-//W3C//DTD SVG 1.1//EN" "http://www.w3.org/Graphics/SVG/1.1/DTD/svg11.dtd" >
<svg xmlns="http://www.w3.org/2000/svg" width="100" height="100" id="balafon_logo" viewBox="0 0 100 100" xmlns:xlink="http://www.w3.org/1999/xlink">
    <path id="Path_44679381" d="M 5.338598,27.58159 L 9.237335,24.80749 12.57417,22.57876 14.95852,20.89243 17.23193,19.30096 19.4812,17.72647 22.00624,15.94403 25.32004,13.73163 29.03092,11.08693 C 31.31726,9.460115 34.32064,9.24615 36.81451,10.53241 39.30838,11.81868 40.87526,14.38985 40.87526,17.19588 L 40.87526,23.04399 40.87526,28.14234 40.87526,32.71586 40.87526,36.76455 40.87526,43.88724 40.87526,50.1852 40.87526,56.48316 40.87526,63.60586 40.87526,67.65455 40.87526,72.22807 40.87526,77.32642 40.87526,83.17452 33.05202,75.68403 41.67422,75.30915 48.22626,74.19849 53.60235,72.481 52.5983,72.86893 57.84661,70.39473 56.68583,71.07545 60.88447,68.07642 59.81895,69.00054 62.96793,65.70161 61.89017,67.14378 63.91451,63.61992 63.25941,65.1183 64.38404,61.51947 64.04276,63.75581 64.04276,60.082 64.27578,61.93678 63.37607,58.41292 64.18575,60.37236 62.23638,57.07343 63.32125,58.49149 60.4722,55.56744 61.7691,56.62988 57.94534,54.15568 59.2904,54.84462 54.49195,52.97022 55.74957,53.33853 50.12639,52.21389 45.6737,52.88433 45.50408,37.00183 53.06717,37.50996 58.69035,38.63459 C 59.11889,38.72031 59.54088,38.84386 59.94797,39.0029 L 64.74642,40.8773 C 65.21633,41.06084 65.6679,41.29215 66.09148,41.5662 L 69.91524,44.0404 C 70.38576,44.34486 70.82104,44.70145 71.21214,45.10287 L 74.06122,48.02692 C 74.47796,48.45462 74.84232,48.93086 75.14612,49.44498 L 77.09548,52.74392 C 77.45676,53.35532 77.72945,54.01524 77.90514,54.70336 L 78.80484,58.22722 C 78.95956,58.83323 79.0379,59.45655 79.0379,60.082 L 79.0379,63.75581 C 79.0379,64.51418 78.9228,65.26831 78.69661,65.99215 L 77.57197,69.59099 C 77.40894,70.11267 77.18911,70.61543 76.91687,71.08936 L 74.89252,74.61322 C 74.59249,75.13551 74.23064,75.6197 73.81476,76.0554 L 70.66578,79.35432 C 70.34059,79.69498 69.98344,80.00473 69.60023,80.27845 L 65.40159,83.27747 C 65.03603,83.5386 64.64718,83.76665 64.24084,83.9582 L 58.99254,86.4324 C 58.66753,86.58562 58.33209,86.7152 57.98849,86.82031 L 50.61868,89.00154 42.32556,90.29014 33.70335,90.66502 C 31.66029,90.75385 29.66962,90.00426 28.19251,88.59001 26.71543,87.17574 25.88011,85.2195 25.88011,83.17452 L 25.88011,77.32642 25.88011,72.22807 25.88011,67.65455 25.88011,63.60586 25.88011,56.48316 25.88011,50.1852 25.88011,43.88724 25.88011,36.76455 25.88011,32.71586 25.88011,28.14234 25.88011,23.04399 25.88011,17.19588 37.72445,23.30484 33.63785,26.20834 30.65369,28.19458 28.08035,30.01097 25.83108,31.58546 23.60598,33.14298 20.89198,35.05548 17.93085,37.0254 14.03211,39.7995 zM 94.6614,83.75253 C 94.6614,87.61923 91.52681,90.75385 87.6601,90.75385 83.7934,90.75385 80.65881,87.61923 80.65881,83.75253 80.65881,79.88582 83.7934,76.75124 87.6601,76.75124 91.52681,76.75124 94.6614,79.88582 94.6614,83.75253 z" />
</svg>