<?xml version="1.0" standalone="no"?>
<!DOCTYPE svg PUBLIC "-//W3C//DTD SVG 1.1//EN" "http://www.w3.org/Graphics/SVG/1.1/DTD/svg11.dtd">
<!--application : DrSStudio-->
<!--author : C.A.D. BONDJE DOUE-->
<!--version : 1.0-->
<!--description : File generate by SVGEncoderVisitor-->
<svg width="100" height="100" fill="#FFF" version="1.1" xmlns="http://www.w3.org/2000/svg">
	<defs />
	<path id="Path_48737334" fill="#FFF" stroke="#000" stroke-miterlimit="0" stroke-width="1" d="M 32.88503,61.80828 C 32.03415,62.01028 31.24416,62.30006 30.51508,62.67762 29.78598,63.05519 29.09957,63.5735 28.45584,64.23256 27.72014,64.98577 27.22446,65.81067 26.96879,66.70725 26.71312,67.60384 26.67844,68.53583 26.86473,69.50322 27.05103,70.47062 27.44721,71.45905 28.05328,72.4685 28.65936,73.47797 29.45554,74.46436 30.44182,75.42771 31.47098,76.43294 32.47783,77.24655 33.46236,77.86854 34.44689,78.49052 35.40256,78.89327 36.32937,79.07678 37.25619,79.2603 38.15087,79.21077 39.01343,78.92818 39.87599,78.6456 40.69987,78.10236 41.48508,77.29845 41.61949,77.16084 41.75593,77.00399 41.89441,76.82791 42.03288,76.65182 42.16492,76.46945 42.29053,76.28079 42.41615,76.09215 42.53002,75.90264 42.63216,75.71229 42.73429,75.52193 42.81622,75.34369 42.87794,75.17754 L 37.52629,69.95035 34.69316,72.85094 32.80207,71.00383 37.50274,66.19124 46.09626,74.58491 C 45.96918,75.04101 45.80903,75.49665 45.6158,75.95184 45.42258,76.40702 45.20084,76.8485 44.9506,77.27629 44.70034,77.70407 44.43042,78.10911 44.14082,78.49138 43.85122,78.87366 43.5508,79.22413 43.23954,79.5428 42.29163,80.51328 41.25733,81.21189 40.13667,81.63863 39.01601,82.06536 37.83487,82.20657 36.59322,82.06229 35.35159,81.91799 34.06007,81.47733 32.71869,80.74028 31.3773,80.00324 30.01191,78.95619 28.62254,77.59913 27.24175,76.25045 26.16378,74.87913 25.38862,73.48516 24.61346,72.09119 24.13465,70.7284 23.95217,69.39679 23.76969,68.06518 23.88404,66.78998 24.29521,65.57119 24.70638,64.3524 25.40008,63.24329 26.37629,62.24383 26.9988,61.60649 27.65772,61.06487 28.35303,60.61893 29.04835,60.173 29.8,59.82809 30.60801,59.58421 z" fill-rule="evenodd" />
</svg>